<svg xmlns="http://www.w3.org/2000/svg" width="40.05" height="35.435" viewBox="0 0 40.05 35.435">
  <g id="카테고리" transform="translate(-729.926 -17)">
    <g id="그룹_1788" data-name="그룹 1788" transform="translate(735.354 33.742)">
      <path id="패스_1255" data-name="패스 1255" d="M46.941,58.578H19.3a.884.884,0,1,1,0-1.768H46.941a.884.884,0,1,1,0,1.768Z" transform="translate(-18.42 -56.81)" fill="#a5a4bf"/>
    </g>
    <g id="그룹_1789" data-name="그룹 1789" transform="translate(749.173 29.227)">
      <path id="패스_1256" data-name="패스 1256" d="M66.194,52.921a.883.883,0,0,1-.884-.884V42.374a.884.884,0,0,1,1.768,0v9.663A.885.885,0,0,1,66.194,52.921Z" transform="translate(-65.31 -41.49)" fill="#a5a4bf"/>
    </g>
    <g id="그룹_1790" data-name="그룹 1790" transform="translate(763.245 33.742)">
      <path id="패스_1257" data-name="패스 1257" d="M113.944,63.83a.883.883,0,0,1-.884-.884V57.694a.884.884,0,1,1,1.768,0v5.252A.885.885,0,0,1,113.944,63.83Z" transform="translate(-113.06 -56.81)" fill="#a5a4bf"/>
    </g>
    <g id="그룹_1791" data-name="그룹 1791" transform="translate(735.354 33.742)">
      <path id="패스_1258" data-name="패스 1258" d="M19.3,63.83a.883.883,0,0,1-.884-.884V57.694a.884.884,0,0,1,1.768,0v5.252A.883.883,0,0,1,19.3,63.83Z" transform="translate(-18.42 -56.81)" fill="#a5a4bf"/>
    </g>
    <g id="그룹_1792" data-name="그룹 1792" transform="translate(742.297 25.514)">
      <rect id="사각형_1254" data-name="사각형 1254" width="15.522" height="1.886" fill="#a5a4bf"/>
    </g>
    <g id="그룹_1793" data-name="그룹 1793" transform="translate(729.926 50.596)">
      <rect id="사각형_1255" data-name="사각형 1255" width="12.625" height="1.839" fill="#a5a4bf"/>
    </g>
    <g id="그룹_1794" data-name="그룹 1794" transform="translate(743.638 50.596)">
      <rect id="사각형_1256" data-name="사각형 1256" width="12.625" height="1.839" fill="#a5a4bf"/>
    </g>
    <g id="그룹_1795" data-name="그룹 1795" transform="translate(757.351 50.596)">
      <rect id="사각형_1257" data-name="사각형 1257" width="12.625" height="1.839" fill="#a5a4bf"/>
    </g>
    <path id="패스_1259" data-name="패스 1259" d="M55.99,7.37h-12.5A1.513,1.513,0,0,1,41.98,5.859V1.512A1.513,1.513,0,0,1,43.492,0h12.5A1.513,1.513,0,0,1,57.5,1.512V5.859A1.511,1.511,0,0,1,55.99,7.37Z" transform="translate(700.317 17)" fill="#a5a4bf"/>
    <path id="패스_1260" data-name="패스 1260" d="M104.533,94.824H94.212a1.152,1.152,0,0,1-1.152-1.152v-3.69a1.152,1.152,0,0,1,1.152-1.152h10.32a1.152,1.152,0,0,1,1.152,1.152v3.69A1.152,1.152,0,0,1,104.533,94.824Z" transform="translate(664.291 -45.652)" fill="#a5a4bf"/>
    <path id="패스_1261" data-name="패스 1261" d="M58,94.824H47.682a1.152,1.152,0,0,1-1.152-1.152v-3.69a1.152,1.152,0,0,1,1.152-1.152H58a1.152,1.152,0,0,1,1.152,1.152v3.69A1.152,1.152,0,0,1,58,94.824Z" transform="translate(697.108 -45.652)" fill="#a5a4bf"/>
    <path id="패스_1262" data-name="패스 1262" d="M11.473,94.824H1.152A1.152,1.152,0,0,1,0,93.672v-3.69A1.152,1.152,0,0,1,1.152,88.83h10.32a1.152,1.152,0,0,1,1.152,1.152v3.69A1.152,1.152,0,0,1,11.473,94.824Z" transform="translate(729.926 -45.652)" fill="#a5a4bf"/>
  </g>
</svg>
