<svg xmlns="http://www.w3.org/2000/svg" width="49.583" height="45.625" viewBox="0 0 39.583 35.625">
  <g id="심볼_35_1" data-name="심볼 35 – 1" transform="translate(-590 -17)">
    <path id="패스_1271" data-name="패스 1271" d="M23.791,13.917V6H4V41.625H43.583V13.917ZM11.917,37.666H7.958V33.708h3.958Zm0-7.917H7.958V25.791h3.958Zm0-7.917H7.958V17.875h3.958Zm0-7.917H7.958V9.958h3.958Zm7.917,23.75H15.875V33.708h3.958Zm0-7.917H15.875V25.791h3.958Zm0-7.917H15.875V17.875h3.958Zm0-7.917H15.875V9.958h3.958Zm19.791,23.75H23.791V33.708H27.75V29.75H23.791V25.791H27.75V21.833H23.791V17.875H39.625ZM35.666,21.833H31.708v3.958h3.958Zm0,7.917H31.708v3.958h3.958Z" transform="translate(586 11)" fill="#a5a4bf"/>
  </g>
</svg>
