<svg xmlns="http://www.w3.org/2000/svg" width="18.066" height="18.067" viewBox="0 0 18.066 18.067">
  <g id="행정구역" transform="translate(-1507.967 -37.967)">
    <path id="패스_1370" data-name="패스 1370" d="M23.565,6a.405.405,0,0,0-.156.025L18.045,8.108,12.022,6,6.366,7.907A.511.511,0,0,0,6,8.389V23.565a.5.5,0,0,0,.5.5.405.405,0,0,0,.156-.025l5.365-2.083,6.022,2.108,5.661-1.9a.517.517,0,0,0,.361-.487V6.5A.5.5,0,0,0,23.565,6Zm-5.52,16.059-6.022-2.113V8.007l6.022,2.113Z" transform="translate(1501.967 31.967)" fill="#a5a4bf"/>
  </g>
</svg>
