<svg xmlns="http://www.w3.org/2000/svg" width="20" height="24.284" viewBox="0 0 20 24.284">
  <g id="산업단지" transform="translate(-1507 -4)">
    <path id="패스_1277" data-name="패스 1277" d="M20,252.087v10.175a.115.115,0,0,1-.126.1H17.827V259a.148.148,0,0,0-.161-.126H11.574a.148.148,0,0,0-.161.126v3.364H.463V250.572A.62.62,0,0,1,0,250.02a.545.545,0,0,1,.225-.424.885.885,0,0,1,.541-.176H4.721a.7.7,0,0,1,.766.6.544.544,0,0,1-.225.425.813.813,0,0,1-.275.138v4.266L9.9,252.007c.084-.048.2,0,.2.08v2.772l4.929-2.851c.084-.048.2,0,.2.08v2.561l4.566-2.641C19.882,251.96,20,252.006,20,252.087Z" transform="translate(1507 -234.077)" fill="#a5a4bf"/>
    <path id="패스_1278" data-name="패스 1278" d="M80.058,10.352a4.933,4.933,0,0,1-.278-.947,4.122,4.122,0,0,1-.07-1.024,3.539,3.539,0,0,1,.241-1.08,3.437,3.437,0,0,1,.643-1,5.467,5.467,0,0,1,1.79-1.244c.611-.281,1.18-.475,1.66-.684l.393-.173.392-.174q.387-.172.745-.351c.237-.118.468-.247.66-.365a5.513,5.513,0,0,0,.583-.438,6.009,6.009,0,0,0,.539-.551,6.65,6.65,0,0,0,.478-.659,7.082,7.082,0,0,0,.406-.765c.118-.274.222-.565.324-.884a3.213,3.213,0,0,1,.325.949,4.309,4.309,0,0,1,.046,1.032,4.86,4.86,0,0,1-.216,1.038,5.141,5.141,0,0,1-.46.986,5.088,5.088,0,0,1-.7.875,6.241,6.241,0,0,1-.843.684,9.073,9.073,0,0,1-.87.522c-.146.077-.292.149-.437.22l-.218.1-.226.1a17.236,17.236,0,0,1-1.778.6c-.266.084-.511.161-.74.253a4.6,4.6,0,0,0-.645.306,2.624,2.624,0,0,0-.533.4,3.315,3.315,0,0,0-.46.611,6.284,6.284,0,0,0-.388.781C80.3,9.748,80.194,10.048,80.058,10.352Z" transform="translate(1430.921 3.99)" fill="#a5a4bf"/>
  </g>
</svg>
