<svg xmlns="http://www.w3.org/2000/svg" width="31.289" height="35.76" viewBox="0 0 31.289 35.76">
  <g id="문의" transform="translate(-1154 -17)">
    <path id="패스_103" data-name="패스 103" d="M13.045,4.4a4.476,4.476,0,0,1,4.522,4.4V11a4.524,4.524,0,0,1-9.045,0V8.8a4.476,4.476,0,0,1,4.522-4.4m0-4.4A8.951,8.951,0,0,0,4,8.8V11a8.951,8.951,0,0,0,9.045,8.8A8.951,8.951,0,0,0,22.089,11V8.8A8.951,8.951,0,0,0,13.045,0Z" transform="translate(1156.6 17)" fill="#a5a4bf"/>
    <path id="패스_104" data-name="패스 104" d="M18.88,14.4A9.042,9.042,0,0,1,26.7,18.8H6.811a9.042,9.042,0,0,1,7.822-4.4H18.88m0-4.4H14.41A13.345,13.345,0,0,0,1,23.2H32.289A13.345,13.345,0,0,0,18.88,10Z" transform="translate(1153 29.56)" fill="#a5a4bf"/>
  </g>
</svg>
