<svg xmlns="http://www.w3.org/2000/svg" width="36.222" height="36.222" viewBox="0 0 36.222 36.222">
  <g id="동의어" transform="translate(-870.389 -17)">
    <path id="패스_1273" data-name="패스 1273" d="M7.622,11.244H4V36.6a3.621,3.621,0,0,0,3.622,3.622H32.978V36.6H7.622ZM36.6,4H14.867a3.621,3.621,0,0,0-3.622,3.622V29.355a3.621,3.621,0,0,0,3.622,3.622H36.6a3.621,3.621,0,0,0,3.622-3.622V7.622A3.621,3.621,0,0,0,36.6,4ZM34.789,20.3H16.678V16.678H34.789Zm-7.244,7.244H16.678V23.922H27.544Zm7.244-14.489H16.678V9.433H34.789Z" transform="translate(866.389 13)" fill="#a5a4bf"/>
  </g>
</svg>
