<svg xmlns="http://www.w3.org/2000/svg" width="39.016" height="35.469" viewBox="0 0 39.016 35.469">
  <g id="번역" transform="translate(-1010 -16)">
    <path id="패스_1270" data-name="패스 1270" d="M358.051,1.179l-4.5-4.451.053-.053a31.068,31.068,0,0,0,6.579-11.581h5.2v-3.547H352.961V-22h-3.547v3.547H337v3.529h19.809a27.864,27.864,0,0,1-5.622,9.506,27.746,27.746,0,0,1-4.1-5.941h-3.547a31.147,31.147,0,0,0,5.285,8.087L339.8,5.63l2.518,2.518,8.867-8.867L356.7,4.8Zm9.984-8.991h-3.547l-7.98,21.281h3.547l1.986-5.32h8.424l2,5.32h3.547ZM363.389,4.6l2.873-7.679L369.135,4.6Z" transform="translate(673 38)" fill="#a5a4bf"/>
  </g>
</svg>
