<svg xmlns="http://www.w3.org/2000/svg" width="19.26" height="21.4" viewBox="0 0 19.26 21.4">
  <g id="유저" transform="translate(-1507 -63.402)">
    <path id="패스_1369" data-name="패스 1369" d="M23.12,4.14H18.642a3.19,3.19,0,0,0-6.024,0H8.14A2.139,2.139,0,0,0,6,6.28V21.26A2.139,2.139,0,0,0,8.14,23.4H23.12a2.139,2.139,0,0,0,2.14-2.14V6.28A2.139,2.139,0,0,0,23.12,4.14Zm-7.49,0a1.07,1.07,0,1,1-1.07,1.07A1.07,1.07,0,0,1,15.63,4.14Zm0,4.28a3.21,3.21,0,1,1-3.21,3.21A3.213,3.213,0,0,1,15.63,8.42Zm6.42,12.84H9.21v-1.5c0-2.14,4.28-3.317,6.42-3.317s6.42,1.177,6.42,3.317Z" transform="translate(1501 61.402)" fill="#a5a4bf"/>
  </g>
</svg>
