<svg xmlns="http://www.w3.org/2000/svg" width="40" height="35.245" viewBox="0 0 40 35.245">
  <g id="작업로그" transform="translate(-1668 -7)">
    <path id="패스_1268" data-name="패스 1268" d="M24.848,6A17.375,17.375,0,0,0,7.714,23.622H2l7.419,7.627.133.284,7.686-7.91H11.524A13.526,13.526,0,0,1,24.857,9.916,13.526,13.526,0,0,1,38.19,23.622,13.526,13.526,0,0,1,24.857,37.329,13.1,13.1,0,0,1,15.438,33.3l-2.7,2.771a16.806,16.806,0,0,0,12.1,5.169A17.391,17.391,0,0,0,42,23.622,17.391,17.391,0,0,0,24.848,6Zm-1.9,9.79v9.79L31.1,30.554l1.371-2.379L25.81,24.112V15.79Z" transform="translate(1666 1)" fill="#fff"/>
  </g>
</svg>
